c:\users\suhlr\documents\myrepositories\opencap-processing-grf\examples\GRF_tracking_data\OC_val\OpenSimData\Dynamics\walking1\GRF_walking1_no_grf_tracking.mot
version=1
nRows=4
nColumns=109
inDegrees=yes
endheader 
time	ground_force_SmoothSphereHalfSpaceForce_s1_r_vx	ground_force_SmoothSphereHalfSpaceForce_s1_r_vy	ground_force_SmoothSphereHalfSpaceForce_s1_r_vz	ground_force_SmoothSphereHalfSpaceForce_s1_r_px	ground_force_SmoothSphereHalfSpaceForce_s1_r_py	ground_force_SmoothSphereHalfSpaceForce_s1_r_pz	ground_torque_SmoothSphereHalfSpaceForce_s1_r_x	ground_torque_SmoothSphereHalfSpaceForce_s1_r_y	ground_torque_SmoothSphereHalfSpaceForce_s1_r_z	ground_force_SmoothSphereHalfSpaceForce_s2_r_vx	ground_force_SmoothSphereHalfSpaceForce_s2_r_vy	ground_force_SmoothSphereHalfSpaceForce_s2_r_vz	ground_force_SmoothSphereHalfSpaceForce_s2_r_px	ground_force_SmoothSphereHalfSpaceForce_s2_r_py	ground_force_SmoothSphereHalfSpaceForce_s2_r_pz	ground_torque_SmoothSphereHalfSpaceForce_s2_r_x	ground_torque_SmoothSphereHalfSpaceForce_s2_r_y	ground_torque_SmoothSphereHalfSpaceForce_s2_r_z	ground_force_SmoothSphereHalfSpaceForce_s3_r_vx	ground_force_SmoothSphereHalfSpaceForce_s3_r_vy	ground_force_SmoothSphereHalfSpaceForce_s3_r_vz	ground_force_SmoothSphereHalfSpaceForce_s3_r_px	ground_force_SmoothSphereHalfSpaceForce_s3_r_py	ground_force_SmoothSphereHalfSpaceForce_s3_r_pz	ground_torque_SmoothSphereHalfSpaceForce_s3_r_x	ground_torque_SmoothSphereHalfSpaceForce_s3_r_y	ground_torque_SmoothSphereHalfSpaceForce_s3_r_z	ground_force_SmoothSphereHalfSpaceForce_s4_r_vx	ground_force_SmoothSphereHalfSpaceForce_s4_r_vy	ground_force_SmoothSphereHalfSpaceForce_s4_r_vz	ground_force_SmoothSphereHalfSpaceForce_s4_r_px	ground_force_SmoothSphereHalfSpaceForce_s4_r_py	ground_force_SmoothSphereHalfSpaceForce_s4_r_pz	ground_torque_SmoothSphereHalfSpaceForce_s4_r_x	ground_torque_SmoothSphereHalfSpaceForce_s4_r_y	ground_torque_SmoothSphereHalfSpaceForce_s4_r_z	ground_force_SmoothSphereHalfSpaceForce_s5_r_vx	ground_force_SmoothSphereHalfSpaceForce_s5_r_vy	ground_force_SmoothSphereHalfSpaceForce_s5_r_vz	ground_force_SmoothSphereHalfSpaceForce_s5_r_px	ground_force_SmoothSphereHalfSpaceForce_s5_r_py	ground_force_SmoothSphereHalfSpaceForce_s5_r_pz	ground_torque_SmoothSphereHalfSpaceForce_s5_r_x	ground_torque_SmoothSphereHalfSpaceForce_s5_r_y	ground_torque_SmoothSphereHalfSpaceForce_s5_r_z	ground_force_SmoothSphereHalfSpaceForce_s6_r_vx	ground_force_SmoothSphereHalfSpaceForce_s6_r_vy	ground_force_SmoothSphereHalfSpaceForce_s6_r_vz	ground_force_SmoothSphereHalfSpaceForce_s6_r_px	ground_force_SmoothSphereHalfSpaceForce_s6_r_py	ground_force_SmoothSphereHalfSpaceForce_s6_r_pz	ground_torque_SmoothSphereHalfSpaceForce_s6_r_x	ground_torque_SmoothSphereHalfSpaceForce_s6_r_y	ground_torque_SmoothSphereHalfSpaceForce_s6_r_z	ground_force_SmoothSphereHalfSpaceForce_s1_l_vx	ground_force_SmoothSphereHalfSpaceForce_s1_l_vy	ground_force_SmoothSphereHalfSpaceForce_s1_l_vz	ground_force_SmoothSphereHalfSpaceForce_s1_l_px	ground_force_SmoothSphereHalfSpaceForce_s1_l_py	ground_force_SmoothSphereHalfSpaceForce_s1_l_pz	ground_torque_SmoothSphereHalfSpaceForce_s1_l_x	ground_torque_SmoothSphereHalfSpaceForce_s1_l_y	ground_torque_SmoothSphereHalfSpaceForce_s1_l_z	ground_force_SmoothSphereHalfSpaceForce_s2_l_vx	ground_force_SmoothSphereHalfSpaceForce_s2_l_vy	ground_force_SmoothSphereHalfSpaceForce_s2_l_vz	ground_force_SmoothSphereHalfSpaceForce_s2_l_px	ground_force_SmoothSphereHalfSpaceForce_s2_l_py	ground_force_SmoothSphereHalfSpaceForce_s2_l_pz	ground_torque_SmoothSphereHalfSpaceForce_s2_l_x	ground_torque_SmoothSphereHalfSpaceForce_s2_l_y	ground_torque_SmoothSphereHalfSpaceForce_s2_l_z	ground_force_SmoothSphereHalfSpaceForce_s3_l_vx	ground_force_SmoothSphereHalfSpaceForce_s3_l_vy	ground_force_SmoothSphereHalfSpaceForce_s3_l_vz	ground_force_SmoothSphereHalfSpaceForce_s3_l_px	ground_force_SmoothSphereHalfSpaceForce_s3_l_py	ground_force_SmoothSphereHalfSpaceForce_s3_l_pz	ground_torque_SmoothSphereHalfSpaceForce_s3_l_x	ground_torque_SmoothSphereHalfSpaceForce_s3_l_y	ground_torque_SmoothSphereHalfSpaceForce_s3_l_z	ground_force_SmoothSphereHalfSpaceForce_s4_l_vx	ground_force_SmoothSphereHalfSpaceForce_s4_l_vy	ground_force_SmoothSphereHalfSpaceForce_s4_l_vz	ground_force_SmoothSphereHalfSpaceForce_s4_l_px	ground_force_SmoothSphereHalfSpaceForce_s4_l_py	ground_force_SmoothSphereHalfSpaceForce_s4_l_pz	ground_torque_SmoothSphereHalfSpaceForce_s4_l_x	ground_torque_SmoothSphereHalfSpaceForce_s4_l_y	ground_torque_SmoothSphereHalfSpaceForce_s4_l_z	ground_force_SmoothSphereHalfSpaceForce_s5_l_vx	ground_force_SmoothSphereHalfSpaceForce_s5_l_vy	ground_force_SmoothSphereHalfSpaceForce_s5_l_vz	ground_force_SmoothSphereHalfSpaceForce_s5_l_px	ground_force_SmoothSphereHalfSpaceForce_s5_l_py	ground_force_SmoothSphereHalfSpaceForce_s5_l_pz	ground_torque_SmoothSphereHalfSpaceForce_s5_l_x	ground_torque_SmoothSphereHalfSpaceForce_s5_l_y	ground_torque_SmoothSphereHalfSpaceForce_s5_l_z	ground_force_SmoothSphereHalfSpaceForce_s6_l_vx	ground_force_SmoothSphereHalfSpaceForce_s6_l_vy	ground_force_SmoothSphereHalfSpaceForce_s6_l_vz	ground_force_SmoothSphereHalfSpaceForce_s6_l_px	ground_force_SmoothSphereHalfSpaceForce_s6_l_py	ground_force_SmoothSphereHalfSpaceForce_s6_l_pz	ground_torque_SmoothSphereHalfSpaceForce_s6_l_x	ground_torque_SmoothSphereHalfSpaceForce_s6_l_y	ground_torque_SmoothSphereHalfSpaceForce_s6_l_z	
          0.56292453	         -0.00000000	         -0.00000001	          0.00000000	          0.18417554	          0.00565764	         -0.22564375	          0.00000000	          0.00000000	          0.00000000	         55.82501916	        129.26508630	          1.15816673	          0.32023341	         -0.00642352	         -0.24795438	          0.00000000	          0.00000000	          0.00000000	         41.58129787	        162.98754386	         -5.53512429	          0.30415022	         -0.00834496	         -0.17267943	          0.00000000	          0.00000000	          0.00000000	          0.75564909	          3.63923914	         -0.75940360	          0.24298102	         -0.00133577	         -0.19686300	          0.00000000	          0.00000000	          0.00000000	         20.12723851	        268.57216359	         -5.99488440	          0.39243796	         -0.00834945	         -0.23542359	          0.00000000	          0.00000000	          0.00000000	        -16.04546846	         82.98314795	         -3.67563749	          0.37727399	         -0.00471765	         -0.16002539	          0.00000000	          0.00000000	          0.00000000	         -1.85933068	          1.83046182	         -0.82892629	          0.82437661	          0.00323080	         -0.27650443	          0.00000000	          0.00000000	          0.00000000	         -0.00000000	          0.00000000	         -0.00000000	          0.95091789	          0.02936072	         -0.24735763	          0.00000000	          0.00000000	          0.00000000	         -0.00000000	          0.00000000	         -0.00000000	          0.94276961	          0.02429378	         -0.32332251	          0.00000000	          0.00000000	          0.00000000	         -0.00007584	          0.00007416	         -0.00003724	          0.88267124	          0.01347799	         -0.30226802	          0.00000000	          0.00000000	          0.00000000	         -0.00000000	         -0.00000000	         -0.00000000	          1.01789154	          0.04133521	         -0.25454410	          0.00000000	          0.00000000	          0.00000000	         -0.00000000	         -0.00000000	         -0.00000000	          1.01003251	          0.03641012	         -0.33075960	          0.00000000	          0.00000000	          0.00000000	
          0.58307547	         -0.00000000	         -0.00000000	          0.00000000	          0.18692145	          0.01134868	         -0.22355887	          0.00000000	          0.00000000	          0.00000000	         60.32611524	        111.45517094	         -1.52105722	          0.32018332	         -0.00628888	         -0.24785422	          0.00000000	          0.00000000	          0.00000000	         36.89738438	        119.32898069	         -7.82565646	          0.30487821	         -0.00768720	         -0.17237120	          0.00000000	          0.00000000	          0.00000000	         -0.00101569	         -0.00532138	          0.00149246	          0.24475522	          0.00188302	         -0.19564998	          0.00000000	          0.00000000	          0.00000000	         52.96584176	        350.53768702	          2.83772191	          0.39248559	         -0.00989452	         -0.23627959	          0.00000000	          0.00000000	          0.00000000	        -19.32977386	         75.29419346	         -0.67981946	          0.37893042	         -0.00461532	         -0.16096445	          0.00000000	          0.00000000	          0.00000000	         -7.57565603	         10.09317030	         -6.03006898	          0.83422475	          0.00056109	         -0.27155243	          0.00000000	          0.00000000	          0.00000000	         -0.00000000	          0.00000000	         -0.00000000	          0.96268147	          0.02351963	         -0.24018658	          0.00000000	          0.00000000	          0.00000000	         -0.00000015	          0.00000020	         -0.00000013	          0.95509127	          0.01904841	         -0.31635860	          0.00000000	          0.00000000	          0.00000000	         -0.00405304	          0.00534946	         -0.00339232	          0.89376224	          0.00955440	         -0.29632773	          0.00000000	          0.00000000	          0.00000000	         -0.00000000	         -0.00000000	         -0.00000000	          1.03080050	          0.03393054	         -0.24623397	          0.00000000	          0.00000000	          0.00000000	         -0.00000000	          0.00000000	         -0.00000000	          1.02351917	          0.02959075	         -0.32264889	          0.00000000	          0.00000000	          0.00000000	
          0.60322642	          0.00000000	         -0.00000000	          0.00000000	          0.19190801	          0.01880476	         -0.22083996	          0.00000000	          0.00000000	          0.00000000	         42.38077842	         71.14356883	         -5.00916539	          0.32034216	         -0.00560633	         -0.24756799	          0.00000000	          0.00000000	          0.00000000	         16.93152404	         58.98633877	         -7.74898575	          0.30613830	         -0.00636085	         -0.17183340	          0.00000000	          0.00000000	          0.00000000	         -0.00000000	         -0.00000000	          0.00000000	          0.24793586	          0.00632852	         -0.19400153	          0.00000000	          0.00000000	          0.00000000	         97.84552247	        424.97057459	         23.46782290	          0.39238954	         -0.01145109	         -0.23734505	          0.00000000	          0.00000000	          0.00000000	        -23.51710499	         63.45459456	          3.05561861	          0.38130446	         -0.00430364	         -0.16224266	          0.00000000	          0.00000000	          0.00000000	        -11.50818902	         54.05278386	        -37.06394949	          0.83892518	         -0.00214307	         -0.26754821	          0.00000000	          0.00000000	          0.00000000	         -0.00000065	          0.00000214	         -0.00000188	          0.96931554	          0.01701367	         -0.23402576	          0.00000000	          0.00000000	          0.00000000	         -0.00004757	          0.00011592	         -0.00009671	          0.96217720	          0.01331284	         -0.31040647	          0.00000000	          0.00000000	          0.00000000	         -0.12447893	          0.35159904	         -0.29256168	          0.89965834	          0.00537686	         -0.29136696	          0.00000000	          0.00000000	          0.00000000	         -0.00000000	          0.00000000	         -0.00000000	          1.03854389	          0.02557028	         -0.23897651	          0.00000000	          0.00000000	          0.00000000	         -0.00000000	          0.00000001	         -0.00000001	          1.03173429	          0.02198866	         -0.31559185	          0.00000000	          0.00000000	          0.00000000	
          0.62337736	          0.00000000	         -0.00000000	          0.00000000	          0.20076984	          0.02817848	         -0.21725924	          0.00000000	          0.00000000	          0.00000000	          7.14545373	         20.02684600	         -4.33526428	          0.32156971	         -0.00394200	         -0.24681955	          0.00000000	          0.00000000	          0.00000000	         -0.17979150	          5.45766712	         -1.53724372	          0.30888436	         -0.00397858	         -0.17080093	          0.00000000	          0.00000000	          0.00000000	          0.00000000	         -0.00000000	          0.00000000	          0.25382397	          0.01226788	         -0.19167181	          0.00000000	          0.00000000	          0.00000000	         84.56497972	        469.69895876	         24.10692624	          0.39262583	         -0.01281361	         -0.23835704	          0.00000000	          0.00000000	          0.00000000	        -34.45040459	         58.09611875	          3.14398885	          0.38510034	         -0.00393482	         -0.16355310	          0.00000000	          0.00000000	          0.00000000	         52.88667531	        136.86736381	        -26.98125508	          0.84012099	         -0.00461734	         -0.26511547	          0.00000000	          0.00000000	          0.00000000	          0.00060413	          0.00220954	         -0.00114617	          0.97207057	          0.01061628	         -0.22969823	          0.00000000	          0.00000000	          0.00000000	          0.00620510	          0.04003670	         -0.01979362	          0.96533903	          0.00774342	         -0.30625819	          0.00000000	          0.00000000	          0.00000000	          2.07321878	          7.73995375	         -2.65761405	          0.90184074	          0.00139965	         -0.28809161	          0.00000000	          0.00000000	          0.00000000	          0.00000035	          0.00000184	         -0.00000127	          1.04218761	          0.01727218	         -0.23369083	          0.00000000	          0.00000000	          0.00000000	          0.00000247	          0.00003653	         -0.00002423	          1.03580237	          0.01450563	         -0.31047759	          0.00000000	          0.00000000	          0.00000000	
